<?xml version="1.0" encoding="utf-8"?>
<!-- Generator: Adobe Illustrator 22.1.0, SVG Export Plug-In . SVG Version: 6.00 Build 0)  -->
<svg version="1.1" id="Calque_1" xmlns="http://www.w3.org/2000/svg" xmlns:xlink="http://www.w3.org/1999/xlink" x="0px" y="0px"
	 viewBox="0 0 300.6 150" style="enable-background:new 0 0 300.6 150;" xml:space="preserve">
<style type="text/css">
	.st0{fill:none;stroke:#161515;stroke-width:4;stroke-linecap:round;stroke-linejoin:round;stroke-miterlimit:10;}
	.st1{fill:none;stroke:#161515;stroke-width:3;stroke-linecap:round;stroke-linejoin:round;stroke-miterlimit:10;}
	.st2{fill:none;stroke:#161515;stroke-width:2;stroke-linecap:round;stroke-linejoin:round;stroke-miterlimit:10;}
	.st3{fill:#161515;}
</style>
<polyline class="st0" points="27,125.2 43.4,97.1 59.4,125.2 "/>
<polyline class="st0" points="59.4,125.2 81.6,78.7 103.3,125.2 "/>
<polyline class="st1" points="142.5,60.8 155.2,44.2 167.5,60.8 "/>
<polyline class="st2" points="145.4,96.5 153.7,85.5 161.9,96.5 "/>
<polyline class="st2" points="79,51.7 87.3,40.7 95.5,51.7 "/>
<polyline class="st2" points="66,57.2 74.4,46.2 82.6,57.2 "/>
<polyline class="st2" points="132.5,91 140.8,80 149,91 "/>
<polyline class="st1" points="193.3,60.8 205.9,44.2 218.2,60.8 "/>
<polyline class="st1" points="167.5,60.8 184.6,33.2 197.7,54.9 "/>
<polyline class="st0" points="202.1,125.3 234.9,56.7 266.8,125.3 "/>
<polyline class="st0" points="71.3,100.2 78.1,105.4 90.2,97.1 "/>
<polyline class="st0" points="223.9,80.6 231.7,85.8 238.8,80 247.6,85.8 "/>
<polyline class="st1" points="176,47 182.2,52.5 191,45.5 "/>
<g>
	<g>
		<g>
			<path class="st3" d="M239.9,88.3c-4.5,0-8.2,3.7-8.2,8.2c0,1.5,0.4,3,1.2,4.3l6.5,10.5c0.1,0.2,0.3,0.3,0.6,0.3c0,0,0,0,0,0
				c0.2,0,0.5-0.1,0.6-0.3l6.3-10.6c0.8-1.3,1.2-2.7,1.2-4.2C248.1,91.9,244.4,88.3,239.9,88.3z M245.8,99.9l-5.8,9.6l-5.9-9.5
				c-0.7-1.1-1-2.3-1-3.6c0-3.8,3.1-6.8,6.8-6.8s6.8,3.1,6.8,6.8C246.7,97.7,246.4,98.9,245.8,99.9z"/>
		</g>
	</g>
	<g>
		<g>
			<path class="st3" d="M239.9,92.4c-2.3,0-4.1,1.8-4.1,4.1c0,2.2,1.8,4.1,4.1,4.1c2.3,0,4.1-1.9,4.1-4.1
				C244,94.2,242.2,92.4,239.9,92.4z M239.9,99.2c-1.5,0-2.7-1.2-2.7-2.7c0-1.5,1.2-2.7,2.7-2.7s2.7,1.2,2.7,2.7
				C242.6,97.9,241.4,99.2,239.9,99.2z"/>
		</g>
	</g>
</g>
<g>
	<g>
		<g>
			<path class="st3" d="M154.7,27.9c-3.2,0-5.8,2.6-5.8,5.8c0,1.1,0.3,2.1,0.9,3l4.6,7.4c0.1,0.1,0.2,0.2,0.4,0.2c0,0,0,0,0,0
				c0.2,0,0.3-0.1,0.4-0.2l4.5-7.4c0.5-0.9,0.8-1.9,0.8-2.9C160.5,30.5,157.9,27.9,154.7,27.9z M158.8,36.2l-4,6.8l-4.2-6.7
				c-0.5-0.8-0.7-1.6-0.7-2.5c0-2.6,2.2-4.8,4.8-4.8c2.6,0,4.8,2.2,4.8,4.8C159.5,34.6,159.3,35.4,158.8,36.2z"/>
		</g>
	</g>
	<g>
		<g>
			<path class="st3" d="M154.7,30.8c-1.6,0-2.9,1.3-2.9,2.9c0,1.6,1.3,2.9,2.9,2.9c1.6,0,2.9-1.3,2.9-2.9
				C157.6,32.1,156.3,30.8,154.7,30.8z M154.7,35.6c-1.1,0-1.9-0.9-1.9-1.9c0-1.1,0.9-1.9,1.9-1.9c1.1,0,1.9,0.9,1.9,1.9
				C156.6,34.7,155.8,35.6,154.7,35.6z"/>
		</g>
	</g>
</g>
<g>
	<g>
		<g>
			<path class="st3" d="M73.8,36.4c-2.1,0-3.7,1.7-3.7,3.7c0,0.7,0.2,1.4,0.6,2l3,4.8c0.1,0.1,0.2,0.1,0.3,0.1c0,0,0,0,0,0
				c0.1,0,0.2-0.1,0.3-0.2l2.9-4.8c0.3-0.6,0.5-1.2,0.5-1.9C77.5,38.1,75.9,36.4,73.8,36.4z M76.5,41.8l-2.6,4.4l-2.7-4.3
				c-0.3-0.5-0.5-1.1-0.5-1.6c0-1.7,1.4-3.1,3.1-3.1s3.1,1.4,3.1,3.1C76.9,40.7,76.8,41.3,76.5,41.8z"/>
		</g>
	</g>
	<g>
		<g>
			<path class="st3" d="M73.8,38.3c-1,0-1.9,0.8-1.9,1.9c0,1,0.8,1.9,1.9,1.9c1.1,0,1.9-0.9,1.9-1.9C75.7,39.1,74.8,38.3,73.8,38.3z
				 M73.8,41.4c-0.7,0-1.2-0.6-1.2-1.2c0-0.7,0.6-1.2,1.2-1.2c0.7,0,1.2,0.6,1.2,1.2C75.1,40.8,74.5,41.4,73.8,41.4z"/>
		</g>
	</g>
</g>
</svg>
