<?xml version="1.0" encoding="utf-8"?>
<!-- Generator: Adobe Illustrator 22.0.1, SVG Export Plug-In . SVG Version: 6.00 Build 0)  -->
<svg version="1.1" xmlns="http://www.w3.org/2000/svg" xmlns:xlink="http://www.w3.org/1999/xlink" x="0px" y="0px"
	 viewBox="0 0 245.8 200.2" style="enable-background:new 0 0 245.8 200.2;" xml:space="preserve">
<style type="text/css">
	.st0{display:none;}
	.st1{display:inline;fill:none;stroke:#282425;stroke-width:4;stroke-linecap:round;stroke-linejoin:round;stroke-miterlimit:10;}
	
		.st2{display:inline;fill:none;stroke:#282425;stroke-width:0.75;stroke-linecap:round;stroke-linejoin:round;stroke-miterlimit:10;}
	.st3{display:inline;fill:none;stroke:#282425;stroke-width:2;stroke-linecap:round;stroke-linejoin:round;stroke-miterlimit:10;}
	.st4{fill:#282425;}
</style>
<g id="Calque_1" class="st0">
	<path class="st1" d="M114.1,174.4c-17.7-38.5-34.8,0-34.8,0H114.1z"/>
	<path class="st1" d="M79.3,174.4l26.6-97.8c0,0,4.8-7.1,8.9,0l-0.6,97.8"/>
	<path class="st1" d="M121.7,174.4c17.7-38.5,34.8,0,34.8,0H121.7z"/>
	<path class="st1" d="M156.5,174.4l-26.6-97.8c0,0-4.8-7.1-8.9,0l0.6,97.8"/>
	<line class="st2" x1="106.9" y1="68" x2="113.5" y2="19.8"/>
	<line class="st2" x1="114.8" y1="68" x2="116.5" y2="19.8"/>
	<line class="st2" x1="128.7" y1="68" x2="122.1" y2="19.8"/>
	<line class="st2" x1="120.8" y1="68" x2="119.1" y2="19.8"/>
	<line class="st3" x1="92.2" y1="158.7" x2="87.2" y2="174.4"/>
	<line class="st3" x1="99.2" y1="158.7" x2="94.2" y2="174.4"/>
	<line class="st3" x1="105.9" y1="160.7" x2="101.9" y2="174.4"/>
	<line class="st3" x1="134.4" y1="158.7" x2="129.4" y2="174.4"/>
	<line class="st3" x1="141.4" y1="158.7" x2="136.5" y2="174.4"/>
	<line class="st3" x1="148.1" y1="160.7" x2="144.2" y2="174.4"/>
</g>
<g id="Calque_2" class="st0">
	<polygon class="st1" points="60.7,76.7 89.2,65.9 191.8,93.7 165.6,106 	"/>
	<path class="st1" d="M60.7,76.7c0,0-30.9,54.8-39.7,55.5"/>
	<path class="st1" d="M165.6,106c0,0-3.9,63.4,3.9,70.6"/>
	<path class="st1" d="M191.8,93.7c0,0,6.9,57.3,26.6,59.8"/>
	<path class="st1" d="M155.3,75.8c-7.2-12.4-4.9-32.8-4.9-32.8"/>
	<path class="st1" d="M138.6,70c-6.2-13-5.1-32.8-5.1-32.8l0,0c12-11.7,16.9,5.8,16.9,5.8"/>
	<line class="st3" x1="149.7" y1="45.3" x2="134.9" y2="51.4"/>
	<line class="st3" x1="148.3" y1="38.2" x2="133.4" y2="44.4"/>
	<line class="st3" x1="150.7" y1="52.3" x2="135.9" y2="58.4"/>
	<line class="st3" x1="151" y1="59.9" x2="136.2" y2="66"/>
</g>
<g id="Calque_3" class="st0">
	<path class="st1" d="M109,162.1c5.3-2,12.2-76.1,6.6-109.1c-0.7-4.4-5.1-7.1-9.3-6c-12.4,3.3-35.1,11.1-41,32.4
		C65.3,79.4,65.9,178.6,109,162.1z"/>
	<line class="st1" x1="67.6" y1="98.1" x2="116.1" y2="78"/>
	<line class="st1" x1="74.8" y1="139.6" x2="116.1" y2="122.5"/>
	<line class="st3" x1="82.4" y1="57.1" x2="116.1" y2="68.8"/>
	<line class="st3" x1="92" y1="51.6" x2="117.1" y2="60.3"/>
	<line class="st3" x1="73.5" y1="63.5" x2="117.7" y2="78.7"/>
	<line class="st3" x1="69.4" y1="71.3" x2="117.7" y2="87.9"/>
	<line class="st3" x1="65.3" y1="79.3" x2="116.1" y2="96.8"/>
	<line class="st3" x1="67.6" y1="98.5" x2="116.1" y2="115.3"/>
	<line class="st3" x1="66.6" y1="89.4" x2="117.1" y2="106.8"/>
	<line class="st3" x1="67.8" y1="108" x2="116.1" y2="124.7"/>
	<line class="st3" x1="69.4" y1="117.8" x2="114.9" y2="133.5"/>
	<line class="st3" x1="71.8" y1="128" x2="113.7" y2="142.5"/>
	<line class="st3" x1="75.3" y1="138.5" x2="112" y2="151.1"/>
	<line class="st3" x1="79.3" y1="148.1" x2="110.2" y2="158.7"/>
	<path class="st1" d="M142.6,162.1c-5.3-2-12.2-76.1-6.6-109.1c0.7-4.4,5.1-7.1,9.3-6c12.4,3.3,35.1,11.1,41,32.4
		C186.3,79.4,185.7,178.6,142.6,162.1z"/>
	<line class="st1" x1="184.1" y1="98.1" x2="135.5" y2="78"/>
	<line class="st1" x1="176.8" y1="139.6" x2="135.5" y2="122.5"/>
	<line class="st3" x1="169.2" y1="57.1" x2="135.5" y2="68.8"/>
	<line class="st3" x1="159.7" y1="51.6" x2="134.5" y2="60.3"/>
	<line class="st3" x1="178.2" y1="63.5" x2="133.9" y2="78.7"/>
	<line class="st3" x1="182.2" y1="71.3" x2="133.9" y2="87.9"/>
	<line class="st3" x1="186.3" y1="79.3" x2="135.5" y2="96.8"/>
	<line class="st3" x1="184.1" y1="98.5" x2="135.5" y2="115.3"/>
	<line class="st3" x1="185" y1="89.4" x2="134.5" y2="106.8"/>
	<line class="st3" x1="183.8" y1="108" x2="135.5" y2="124.7"/>
	<line class="st3" x1="182.2" y1="117.8" x2="136.7" y2="133.5"/>
	<line class="st3" x1="179.8" y1="128" x2="137.9" y2="142.5"/>
	<line class="st3" x1="176.3" y1="138.5" x2="139.6" y2="151.1"/>
	<line class="st3" x1="172.3" y1="148.1" x2="141.4" y2="158.7"/>
</g>
<g id="Calque_4">
	<path class="st4" d="M200.9,142.4h-153c-1.1,0-2-0.9-2-2V50.1c0-1.1,0.9-2,2-2h153c1.1,0,2,0.9,2,2v90.3
		C202.9,141.5,202,142.4,200.9,142.4z M49.9,138.4h149V52.1h-149V138.4z"/>
	<path class="st4" d="M200.9,75.1h-153c-1.1,0-2-0.9-2-2s0.9-2,2-2h153c1.1,0,2,0.9,2,2S202,75.1,200.9,75.1z"/>
	<path class="st4" d="M128.1,96.3H64.4c-1.1,0-2-0.9-2-2s0.9-2,2-2h63.7c1.1,0,2,0.9,2,2S129.2,96.3,128.1,96.3z"/>
	<path class="st4" d="M128.1,109.1H64.4c-1.1,0-2-0.9-2-2s0.9-2,2-2h63.7c1.1,0,2,0.9,2,2S129.2,109.1,128.1,109.1z"/>
	<path class="st4" d="M128.1,121.9H64.4c-1.1,0-2-0.9-2-2s0.9-2,2-2h63.7c1.1,0,2,0.9,2,2S129.2,121.9,128.1,121.9z"/>
</g>
</svg>
