<?xml version="1.0" encoding="utf-8"?>
<!-- Generator: Adobe Illustrator 22.0.1, SVG Export Plug-In . SVG Version: 6.00 Build 0)  -->
<svg version="1.1" id="Calque_1" xmlns="http://www.w3.org/2000/svg" xmlns:xlink="http://www.w3.org/1999/xlink" x="0px" y="0px"
	 viewBox="0 0 245.8 200.2" style="enable-background:new 0 0 245.8 200.2;" xml:space="preserve">
<style type="text/css">
	.st0{fill:#282425;}
</style>
<path class="st0" d="M114.1,176.4H79.3c-0.7,0-1.3-0.3-1.7-0.9c-0.4-0.6-0.4-1.3-0.2-1.9c0.3-0.7,8.2-18.2,19.7-18.3
	c0,0,0.1,0,0.1,0c6.8,0,13.1,6.1,18.7,18.3c0.3,0.6,0.2,1.3-0.1,1.9S114.8,176.4,114.1,176.4z M82.5,172.4h28.4
	c-4.4-8.6-9.1-13.1-13.7-13.1c0,0,0,0,0,0C91.1,159.4,85.4,167.2,82.5,172.4z"/>
<path class="st0" d="M79.3,176.4c-0.2,0-0.4,0-0.5-0.1c-1.1-0.3-1.7-1.4-1.4-2.5L104,76.1c0.1-0.2,0.1-0.4,0.3-0.6
	c0.3-0.4,2.9-4.2,6.6-4.1c2.2,0.1,4.1,1.5,5.7,4.2c0.2,0.3,0.3,0.7,0.3,1l-0.6,97.8c0,1.1-0.9,2-2,2c0,0,0,0,0,0c-1.1,0-2-0.9-2-2
	l0.6-97.2c-0.5-0.8-1.3-1.7-2.1-1.7c-1.1,0-2.3,1.2-3,2L81.2,175C81,175.9,80.2,176.4,79.3,176.4z"/>
<path class="st0" d="M156.5,176.4h-34.8c-0.7,0-1.3-0.3-1.7-0.9s-0.4-1.3-0.1-1.9c5.6-12.1,11.9-18.3,18.7-18.3c0,0,0.1,0,0.1,0
	c11.5,0.1,19.3,17.5,19.7,18.3c0.3,0.6,0.2,1.3-0.2,1.9S157.2,176.4,156.5,176.4z M124.9,172.4h28.4c-2.9-5.2-8.5-13.1-14.6-13.1
	c0,0,0,0,0,0C134,159.3,129.3,163.9,124.9,172.4z"/>
<path class="st0" d="M156.5,176.4c-0.9,0-1.7-0.6-1.9-1.5l-26.5-97.4c-0.6-0.8-1.9-2.1-3-2c-0.8,0-1.6,1-2.1,1.7l0.6,97.2
	c0,1.1-0.9,2-2,2c-1.1,0-2-0.9-2-2L119,76.7c0-0.4,0.1-0.7,0.3-1c1.6-2.7,3.5-4.1,5.7-4.2c3.6-0.1,6.3,3.6,6.6,4.1
	c0.1,0.2,0.2,0.4,0.3,0.6l26.6,97.8c0.3,1.1-0.3,2.2-1.4,2.5C156.9,176.4,156.7,176.4,156.5,176.4z"/>
<path class="st0" d="M106.9,68.4C106.9,68.4,106.9,68.4,106.9,68.4c-0.3,0-0.4-0.2-0.4-0.4l6.6-48.2c0-0.2,0.2-0.4,0.4-0.3
	c0.2,0,0.3,0.2,0.3,0.4L107.3,68C107.2,68.2,107.1,68.4,106.9,68.4z"/>
<path class="st0" d="M114.8,68.4C114.8,68.4,114.8,68.4,114.8,68.4c-0.2,0-0.4-0.2-0.4-0.4l1.7-48.2c0-0.2,0.2-0.3,0.4-0.4
	c0.2,0,0.4,0.2,0.4,0.4L115.2,68C115.1,68.2,115,68.4,114.8,68.4z"/>
<path class="st0" d="M128.7,68.4c-0.2,0-0.3-0.1-0.4-0.3l-6.6-48.2c0-0.2,0.1-0.4,0.3-0.4c0.2,0,0.4,0.1,0.4,0.3l6.6,48.2
	C129.1,68.2,128.9,68.3,128.7,68.4C128.7,68.4,128.7,68.4,128.7,68.4z"/>
<path class="st0" d="M120.8,68.4c-0.2,0-0.4-0.2-0.4-0.4l-1.7-48.2c0-0.2,0.2-0.4,0.4-0.4c0.2,0,0.4,0.2,0.4,0.4l1.7,48.2
	C121.2,68.2,121,68.4,120.8,68.4C120.8,68.4,120.8,68.4,120.8,68.4z"/>
<path class="st0" d="M87.2,175.4c-0.1,0-0.2,0-0.3,0c-0.5-0.2-0.8-0.7-0.7-1.3l4.9-15.8c0.2-0.5,0.7-0.8,1.3-0.7
	c0.5,0.2,0.8,0.7,0.7,1.3l-4.9,15.8C88,175.2,87.6,175.4,87.2,175.4z"/>
<path class="st0" d="M94.3,175.4c-0.1,0-0.2,0-0.3,0c-0.5-0.2-0.8-0.7-0.7-1.3l4.9-15.8c0.2-0.5,0.7-0.8,1.3-0.7
	c0.5,0.2,0.8,0.7,0.7,1.3l-4.9,15.8C95.1,175.2,94.7,175.4,94.3,175.4z"/>
<path class="st0" d="M101.9,175.4c-0.1,0-0.2,0-0.3,0c-0.5-0.2-0.8-0.7-0.7-1.2l3.9-13.8c0.2-0.5,0.7-0.8,1.2-0.7
	c0.5,0.2,0.8,0.7,0.7,1.2l-3.9,13.8C102.8,175.2,102.4,175.4,101.9,175.4z"/>
<path class="st0" d="M129.4,175.4c-0.1,0-0.2,0-0.3,0c-0.5-0.2-0.8-0.7-0.7-1.3l4.9-15.8c0.2-0.5,0.7-0.8,1.3-0.7
	c0.5,0.2,0.8,0.7,0.7,1.3l-4.9,15.8C130.3,175.2,129.9,175.4,129.4,175.4z"/>
<path class="st0" d="M136.5,175.4c-0.1,0-0.2,0-0.3,0c-0.5-0.2-0.8-0.7-0.7-1.3l4.9-15.8c0.2-0.5,0.7-0.8,1.3-0.7
	c0.5,0.2,0.8,0.7,0.7,1.3l-4.9,15.8C137.3,175.2,136.9,175.4,136.5,175.4z"/>
<path class="st0" d="M144.2,175.4c-0.1,0-0.2,0-0.3,0c-0.5-0.2-0.8-0.7-0.7-1.2l3.9-13.8c0.2-0.5,0.7-0.8,1.2-0.7
	c0.5,0.2,0.8,0.7,0.7,1.2l-3.9,13.8C145,175.2,144.6,175.4,144.2,175.4z"/>
</svg>
