<?xml version="1.0" encoding="utf-8"?>
<!-- Generator: Adobe Illustrator 22.1.0, SVG Export Plug-In . SVG Version: 6.00 Build 0)  -->
<svg version="1.1" id="Calque_1" xmlns="http://www.w3.org/2000/svg" xmlns:xlink="http://www.w3.org/1999/xlink" x="0px" y="0px"
	 viewBox="0 0 508 351" style="enable-background:new 0 0 508 351;" xml:space="preserve">
<style type="text/css">
	.st0{fill:#161414;}
</style>
<path class="st0" d="M426,41.3H79.2c-11.8,0-21.4,9.6-21.4,21.4v215.4c0,11.8,9.6,21.4,21.4,21.4H426c11.8,0,21.4-9.6,21.4-21.4
	V62.7C447.3,50.9,437.7,41.3,426,41.3z M426,280.5H79.2c-1.3,0-2.4-1.1-2.4-2.4V67.5l143.8,99.4c1.6,1.1,3.5,1.7,5.4,1.7
	c3,0,6-1.4,7.8-4.1c3-4.3,1.9-10.2-2.4-13.2L99.9,60.3h305.4l-131.6,90.9c-4.3,3-5.4,8.9-2.4,13.2c1.8,2.7,4.8,4.1,7.8,4.1
	c1.9,0,3.7-0.5,5.4-1.7l143.8-99.4v210.7C428.3,279.4,427.3,280.5,426,280.5z"/>
</svg>
