<?xml version="1.0" encoding="utf-8"?>
<!-- Generator: Adobe Illustrator 22.0.1, SVG Export Plug-In . SVG Version: 6.00 Build 0)  -->
<svg version="1.1" xmlns="http://www.w3.org/2000/svg" xmlns:xlink="http://www.w3.org/1999/xlink" x="0px" y="0px"
	 viewBox="0 0 245.8 200.2" style="enable-background:new 0 0 245.8 200.2;" xml:space="preserve">
<style type="text/css">
	.st0{display:none;}
	.st1{display:inline;fill:none;stroke:#282425;stroke-width:4;stroke-linecap:round;stroke-linejoin:round;stroke-miterlimit:10;}
	
		.st2{display:inline;fill:none;stroke:#282425;stroke-width:0.75;stroke-linecap:round;stroke-linejoin:round;stroke-miterlimit:10;}
	.st3{display:inline;fill:none;stroke:#282425;stroke-width:2;stroke-linecap:round;stroke-linejoin:round;stroke-miterlimit:10;}
	.st4{fill:#282425;}
</style>
<g id="Calque_1" class="st0">
	<path class="st1" d="M114.1,174.4c-17.7-38.5-34.8,0-34.8,0H114.1z"/>
	<path class="st1" d="M79.3,174.4l26.6-97.8c0,0,4.8-7.1,8.9,0l-0.6,97.8"/>
	<path class="st1" d="M121.7,174.4c17.7-38.5,34.8,0,34.8,0H121.7z"/>
	<path class="st1" d="M156.5,174.4l-26.6-97.8c0,0-4.8-7.1-8.9,0l0.6,97.8"/>
	<line class="st2" x1="106.9" y1="68" x2="113.5" y2="19.8"/>
	<line class="st2" x1="114.8" y1="68" x2="116.5" y2="19.8"/>
	<line class="st2" x1="128.7" y1="68" x2="122.1" y2="19.8"/>
	<line class="st2" x1="120.8" y1="68" x2="119.1" y2="19.8"/>
	<line class="st3" x1="92.2" y1="158.7" x2="87.2" y2="174.4"/>
	<line class="st3" x1="99.2" y1="158.7" x2="94.2" y2="174.4"/>
	<line class="st3" x1="105.9" y1="160.7" x2="101.9" y2="174.4"/>
	<line class="st3" x1="134.4" y1="158.7" x2="129.4" y2="174.4"/>
	<line class="st3" x1="141.4" y1="158.7" x2="136.5" y2="174.4"/>
	<line class="st3" x1="148.1" y1="160.7" x2="144.2" y2="174.4"/>
</g>
<g id="Calque_2">
	<path class="st4" d="M165.6,108c-0.2,0-0.4,0-0.5-0.1L60.1,78.6c-0.8-0.2-1.4-1-1.5-1.8c0-0.9,0.5-1.7,1.3-2l28.5-10.8
		c0.4-0.1,0.8-0.2,1.2-0.1l102.6,27.8c0.8,0.2,1.4,0.9,1.5,1.8s-0.4,1.6-1.1,2l-26.2,12.3C166.2,108,165.9,108,165.6,108z
		 M67.1,76.4l98.3,27.5l20.6-9.7L89.3,68L67.1,76.4z"/>
	<path class="st4" d="M20.9,134.3c-1,0-1.9-0.8-2-1.8c-0.1-1.1,0.7-2.1,1.8-2.2c0.8-0.1,5.4-1.7,21.7-27.1
		c8.7-13.6,16.4-27.3,16.5-27.4c0.5-1,1.8-1.3,2.7-0.8c1,0.5,1.3,1.8,0.8,2.7c-0.1,0.1-7.8,13.9-16.6,27.6
		c-16.1,25.2-21.7,28.7-24.7,29C21.1,134.3,21,134.3,20.9,134.3z"/>
	<path class="st4" d="M169.4,178.6c-0.5,0-1-0.2-1.4-0.5c-8.1-7.4-5.2-61.4-4.5-72.2c0.1-1.1,1-1.9,2.1-1.9c1.1,0.1,1.9,1,1.9,2.1
		c-1.5,24.1-1.9,64.2,3.2,69c0.8,0.7,0.9,2,0.1,2.8C170.5,178.4,170,178.6,169.4,178.6z"/>
	<path class="st4" d="M218.4,155.5c-0.1,0-0.2,0-0.3,0c-20.6-2.6-27.6-55.5-28.3-61.6c-0.1-1.1,0.6-2.1,1.7-2.2
		c1.1-0.1,2.1,0.6,2.2,1.7c1.9,15.5,10,56.2,24.8,58.1c1.1,0.1,1.9,1.1,1.7,2.2C220.2,154.8,219.4,155.5,218.4,155.5z"/>
	<path class="st4" d="M155.3,77.8c-0.7,0-1.4-0.4-1.7-1c-7.5-12.8-5.3-33.2-5.2-34c0.1-1.1,1.1-1.9,2.2-1.8c1.1,0.1,1.9,1.1,1.8,2.2
		c0,0.2-2.1,19.9,4.7,31.6c0.6,1,0.2,2.2-0.7,2.7C156,77.7,155.6,77.8,155.3,77.8z"/>
	<path class="st4" d="M138.6,72c-0.7,0-1.5-0.4-1.8-1.1c-6.3-13.3-5.3-32.9-5.3-33.8c0-0.5,0.2-1,0.6-1.3c3.9-3.8,7.7-5.3,11.2-4.3
		c6.3,1.7,8.9,10.6,9,11c0.3,1.1-0.3,2.2-1.4,2.5c-1.1,0.3-2.2-0.3-2.5-1.4c-0.6-2-2.8-7.3-6.2-8.2c-1.9-0.5-4.2,0.4-6.8,2.8
		c-0.1,3.7-0.3,20.1,4.9,31c0.5,1,0,2.2-1,2.7C139.1,72,138.8,72,138.6,72z"/>
	<path class="st4" d="M134.9,52.4c-0.4,0-0.8-0.2-0.9-0.6c-0.2-0.5,0-1.1,0.5-1.3l14.8-6.1c0.5-0.2,1.1,0,1.3,0.5s0,1.1-0.5,1.3
		l-14.8,6.1C135.1,52.4,135,52.4,134.9,52.4z"/>
	<path class="st4" d="M133.4,45.4c-0.4,0-0.8-0.2-0.9-0.6c-0.2-0.5,0-1.1,0.5-1.3l14.8-6.1c0.5-0.2,1.1,0,1.3,0.5
		c0.2,0.5,0,1.1-0.5,1.3l-14.8,6.1C133.7,45.3,133.6,45.4,133.4,45.4z"/>
	<path class="st4" d="M135.9,59.4c-0.4,0-0.8-0.2-0.9-0.6c-0.2-0.5,0-1.1,0.5-1.3l14.8-6.1c0.5-0.2,1.1,0,1.3,0.5
		c0.2,0.5,0,1.1-0.5,1.3l-14.8,6.1C136.1,59.4,136,59.4,135.9,59.4z"/>
	<path class="st4" d="M136.2,67c-0.4,0-0.8-0.2-0.9-0.6c-0.2-0.5,0-1.1,0.5-1.3l14.8-6.1c0.5-0.2,1.1,0,1.3,0.5
		c0.2,0.5,0,1.1-0.5,1.3L136.6,67C136.5,67,136.3,67,136.2,67z"/>
</g>
</svg>
