<?xml version="1.0" encoding="utf-8"?>
<!-- Generator: Adobe Illustrator 22.0.1, SVG Export Plug-In . SVG Version: 6.00 Build 0)  -->
<svg version="1.1" id="Capa_1" xmlns="http://www.w3.org/2000/svg" xmlns:xlink="http://www.w3.org/1999/xlink" x="0px" y="0px"
	 viewBox="0 0 496 496" style="enable-background:new 0 0 496 496;" xml:space="preserve">
<g>
	<g>
		<path d="M483.4,38.6c-5.2-1.3-10.4-1.9-15.6-1.9l4.1-27.5l-15.8-2.4l-4.8,31.9c-6.4,1.6-12.5,4.3-18.2,7.8
			c-15.2,9.4-25.5,24.2-29.3,41.7c-6,27.9,6.6,55.3,29.7,69.3l-33,219.8l-23.2-3.9l-2.6,15.8l23.4,3.9l-13,86.9h-12L279,273l0.2,0.1
			l11.2-23.5c29.6-62.1,63.9-122.6,102-179.8c4.9-7.4,7.5-16,7.5-24.9C400,20.1,379.9,0,355.1,0c-19.7,0-36.9,12.6-42.8,31.5
			l-5.1,16.4c-16.6,53-36.5,105.5-59.2,156.3c-22.6-50.8-42.6-103.3-59.2-156.3l-5.1-16.5C177.8,12.6,160.6,0,140.8,0
			C116.1,0,96,20.1,96,44.8c0,8.9,2.6,17.5,7.5,24.9c38.2,57.2,72.5,117.7,102,179.8l11.2,23.6l-94,206.8h-12l-13-86.9l23.4-3.9
			l-2.6-15.8l-23.2,3.9l-33-219.8c23.1-14,35.7-41.4,29.7-69.3C88.5,70.8,78.1,56,62.9,46.5c-5.7-3.6-11.9-6.2-18.2-7.9L39.9,6.8
			L24.1,9.2l4.1,27.5c-5.2,0-10.4,0.6-15.6,1.9l-6.6,1.6l3.9,15.5l6.5-1.6c4.7-1.2,9.4-1.6,14.1-1.4l14.3,95.6c-1.5,0.5-3,1-4.6,1.4
			l-10.3,2.6l3.9,15.5l10.3-2.6c1.1-0.3,2.1-0.6,3.1-0.9l32.4,215.7l-25,4.2l2.6,15.8l24.8-4.1l12.5,83.4c-6-1-11.9-2.7-17.3-5.5
			l-5.3-2.6l-5.3,2.6c-8.3,4.1-17.5,6.3-26.7,6.3h-8v16h8c11,0,22-2.4,32-7.1c10,4.6,21,7.1,32,7.1h72c11,0,22-2.4,32-7.1
			c10,4.6,21,7.1,32,7.1h8c11,0,22-2.4,32-7.1c10,4.6,21,7.1,32,7.1h80c11,0,22-2.4,32-7.1c10,4.6,21,7.1,32,7.1h8v-16h-8
			c-9.2,0-18.5-2.2-26.7-6.3l-5.3-2.6l-5.3,2.6c-5.4,2.7-11.3,4.5-17.3,5.5l12.5-83.4l24.8,4.1l2.6-15.8l-25-4.2l32.4-215.7
			c1,0.3,2,0.7,3.1,0.9l10.3,2.6l3.9-15.5l-10.3-2.6c-1.6-0.4-3.1-0.9-4.6-1.4l14.3-95.6c4.7-0.2,9.4,0.2,14.1,1.4l6.6,1.6l3.9-15.5
			L483.4,38.6z M47.4,56.5c2.4,1,4.8,2.2,7.1,3.6c11.4,7.1,19.3,18.3,22.1,31.5c4,18.6-3,36.9-16.7,48.2L47.4,56.5z M322.4,52.7
			l5.1-16.5c3.8-12.1,14.8-20.2,27.6-20.2c15.9,0,28.8,12.9,28.8,28.8c0,5.7-1.7,11.2-4.8,16c-26.8,40.1-51.5,81.9-74.2,124.7
			l-19.1,4.8l-5.4-21.4C296,130.7,310.2,91.9,322.4,52.7z M258.1,221c4.1-9.1,8-18.3,12-27.5l4,16.2l20.8-5.2
			c-6.5,12.7-12.9,25.4-19,38.2l-5.5,11.5L256.8,224L258.1,221z M116.8,60.8c-3.2-4.8-4.8-10.3-4.8-16c0-15.9,12.9-28.8,28.9-28.8
			c12.7,0,23.7,8.1,27.5,20.2l5.1,16.5c12.2,39.2,26.4,78,41.9,116.2l-5.4,21.4l-19.1-4.8C168.4,142.8,143.6,101,116.8,60.8z
			 M201,204.5l20.8,5.2l4-16.2c4,9.2,7.9,18.4,12,27.5l46.7,102.7l-17.6-5.9l-4.6,13.7L220,242.7C213.9,229.9,207.5,217.2,201,204.5
			z M225.8,292.1l13.3,27.9l-5.5,11.6l-4.6-13.7l-17.6,5.9L225.8,292.1z M162.9,480h-22.5l62.1-136.5l0,0.1l16.4-5.5l4.8,14.3
			L162.9,480z M312,480c-9.2,0-18.5-2.2-26.7-6.3l-5.3-2.6l-5.3,2.6c-8.3,4.1-17.5,6.3-26.7,6.3h-8c-9.2,0-18.5-2.2-26.7-6.3
			l-5.3-2.6l-5.3,2.6c-6.8,3.4-14.3,5.4-21.9,6L248,338.6L315.3,480H312z M333.1,480l-60.8-127.6l4.8-14.3l16.4,5.5l0-0.1L355.6,480
			H333.1z M436.1,139.8c-13.7-11.3-20.7-29.6-16.7-48.2c2.8-13.2,10.7-24.3,22.1-31.5c2.3-1.4,4.7-2.6,7.1-3.6L436.1,139.8z"/>
	</g>
</g>
</svg>
