<?xml version="1.0" encoding="utf-8"?>
<!-- Generator: Adobe Illustrator 22.0.1, SVG Export Plug-In . SVG Version: 6.00 Build 0)  -->
<svg version="1.1" xmlns="http://www.w3.org/2000/svg" xmlns:xlink="http://www.w3.org/1999/xlink" x="0px" y="0px"
	 viewBox="0 0 245.8 200.2" style="enable-background:new 0 0 245.8 200.2;" xml:space="preserve">
<style type="text/css">
	.st0{display:none;}
	.st1{display:inline;fill:none;stroke:#282425;stroke-width:4;stroke-linecap:round;stroke-linejoin:round;stroke-miterlimit:10;}
	
		.st2{display:inline;fill:none;stroke:#282425;stroke-width:0.75;stroke-linecap:round;stroke-linejoin:round;stroke-miterlimit:10;}
	.st3{display:inline;fill:none;stroke:#282425;stroke-width:2;stroke-linecap:round;stroke-linejoin:round;stroke-miterlimit:10;}
	.st4{fill:#282425;}
</style>
<g id="Calque_1" class="st0">
	<path class="st1" d="M114.1,174.4c-17.7-38.5-34.8,0-34.8,0H114.1z"/>
	<path class="st1" d="M79.3,174.4l26.6-97.8c0,0,4.8-7.1,8.9,0l-0.6,97.8"/>
	<path class="st1" d="M121.7,174.4c17.7-38.5,34.8,0,34.8,0H121.7z"/>
	<path class="st1" d="M156.5,174.4l-26.6-97.8c0,0-4.8-7.1-8.9,0l0.6,97.8"/>
	<line class="st2" x1="106.9" y1="68" x2="113.5" y2="19.8"/>
	<line class="st2" x1="114.8" y1="68" x2="116.5" y2="19.8"/>
	<line class="st2" x1="128.7" y1="68" x2="122.1" y2="19.8"/>
	<line class="st2" x1="120.8" y1="68" x2="119.1" y2="19.8"/>
	<line class="st3" x1="92.2" y1="158.7" x2="87.2" y2="174.4"/>
	<line class="st3" x1="99.2" y1="158.7" x2="94.2" y2="174.4"/>
	<line class="st3" x1="105.9" y1="160.7" x2="101.9" y2="174.4"/>
	<line class="st3" x1="134.4" y1="158.7" x2="129.4" y2="174.4"/>
	<line class="st3" x1="141.4" y1="158.7" x2="136.5" y2="174.4"/>
	<line class="st3" x1="148.1" y1="160.7" x2="144.2" y2="174.4"/>
</g>
<g id="Calque_2" class="st0">
	<polygon class="st1" points="60.7,76.7 89.2,65.9 191.8,93.7 165.6,106 	"/>
	<path class="st1" d="M60.7,76.7c0,0-30.9,54.8-39.7,55.5"/>
	<path class="st1" d="M165.6,106c0,0-3.9,63.4,3.9,70.6"/>
	<path class="st1" d="M191.8,93.7c0,0,6.9,57.3,26.6,59.8"/>
	<path class="st1" d="M155.3,75.8c-7.2-12.4-4.9-32.8-4.9-32.8"/>
	<path class="st1" d="M138.6,70c-6.2-13-5.1-32.8-5.1-32.8l0,0c12-11.7,16.9,5.8,16.9,5.8"/>
	<line class="st3" x1="149.7" y1="45.3" x2="134.9" y2="51.4"/>
	<line class="st3" x1="148.3" y1="38.2" x2="133.4" y2="44.4"/>
	<line class="st3" x1="150.7" y1="52.3" x2="135.9" y2="58.4"/>
	<line class="st3" x1="151" y1="59.9" x2="136.2" y2="66"/>
</g>
<g id="Calque_3">
	<path class="st4" d="M99.8,165.9c-4.3,0-8.4-1.3-12.1-3.8c-23.8-16.2-24.4-80-24.4-82.7c0-0.2,0-0.4,0.1-0.5
		c4.5-16.2,18.4-27.3,42.4-33.8c2.6-0.7,5.3-0.3,7.6,1.2c2.2,1.4,3.8,3.8,4.2,6.4c2.5,14.7,2.8,39.6,0.8,66.6
		c-0.8,11.4-2,22-3.4,29.9c-2.1,12.6-3.9,14.2-5.3,14.8l0,0C106.2,165.3,102.9,165.9,99.8,165.9z M67.3,79.7
		c0.1,4.6,1.4,64.7,22.7,79.2c5.2,3.6,11.1,4,18.1,1.4c1.6-2.1,4.6-16.9,6.5-43.1c1.8-26,1.5-49.9-0.9-63.9
		c-0.3-1.5-1.1-2.9-2.4-3.7c-1.3-0.8-2.9-1.1-4.4-0.7C84.4,55,71.5,65.1,67.3,79.7z M108.3,160.2L108.3,160.2L108.3,160.2z"/>
	<path class="st4" d="M67.6,100.1c-0.8,0-1.5-0.5-1.8-1.2c-0.4-1,0.1-2.2,1.1-2.6l48.6-20.1c1-0.4,2.2,0.1,2.6,1.1s-0.1,2.2-1.1,2.6
		L68.3,99.9C68.1,100,67.8,100.1,67.6,100.1z"/>
	<path class="st4" d="M74.8,141.6c-0.8,0-1.5-0.5-1.8-1.2c-0.4-1,0.1-2.2,1.1-2.6l41.3-17.1c1-0.4,2.2,0.1,2.6,1.1s-0.1,2.2-1.1,2.6
		l-41.3,17.1C75.3,141.6,75.1,141.6,74.8,141.6z"/>
	<path class="st4" d="M116.1,69.8c-0.1,0-0.2,0-0.3-0.1L82,58.1c-0.5-0.2-0.8-0.7-0.6-1.3c0.2-0.5,0.7-0.8,1.3-0.6l33.8,11.6
		c0.5,0.2,0.8,0.7,0.6,1.3C116.9,69.5,116.5,69.8,116.1,69.8z"/>
	<path class="st4" d="M117.1,61.3c-0.1,0-0.2,0-0.3-0.1l-25.2-8.7c-0.5-0.2-0.8-0.7-0.6-1.3c0.2-0.5,0.7-0.8,1.3-0.6l25.2,8.7
		c0.5,0.2,0.8,0.7,0.6,1.3C117.9,61,117.5,61.3,117.1,61.3z"/>
	<path class="st4" d="M117.7,79.7c-0.1,0-0.2,0-0.3-0.1L73.1,64.4c-0.5-0.2-0.8-0.7-0.6-1.3c0.2-0.5,0.7-0.8,1.3-0.6L118,77.8
		c0.5,0.2,0.8,0.7,0.6,1.3C118.5,79.4,118.1,79.7,117.7,79.7z"/>
	<path class="st4" d="M117.7,88.9c-0.1,0-0.2,0-0.3-0.1L69.1,72.2c-0.5-0.2-0.8-0.7-0.6-1.3c0.2-0.5,0.7-0.8,1.3-0.6L118,87
		c0.5,0.2,0.8,0.7,0.6,1.3C118.5,88.7,118.1,88.9,117.7,88.9z"/>
	<path class="st4" d="M116.1,97.8c-0.1,0-0.2,0-0.3-0.1L65,80.2c-0.5-0.2-0.8-0.7-0.6-1.3c0.2-0.5,0.7-0.8,1.3-0.6l50.8,17.5
		c0.5,0.2,0.8,0.7,0.6,1.3C116.9,97.5,116.5,97.8,116.1,97.8z"/>
	<path class="st4" d="M116.1,116.3c-0.1,0-0.2,0-0.3-0.1L67.2,99.5c-0.5-0.2-0.8-0.7-0.6-1.3c0.2-0.5,0.7-0.8,1.3-0.6l48.6,16.7
		c0.5,0.2,0.8,0.7,0.6,1.3C116.9,116,116.5,116.3,116.1,116.3z"/>
	<path class="st4" d="M117.1,107.8c-0.1,0-0.2,0-0.3-0.1L66.3,90.3c-0.5-0.2-0.8-0.7-0.6-1.3c0.2-0.5,0.7-0.8,1.3-0.6l50.5,17.4
		c0.5,0.2,0.8,0.7,0.6,1.3C117.9,107.5,117.5,107.8,117.1,107.8z"/>
	<path class="st4" d="M116.1,125.7c-0.1,0-0.2,0-0.3-0.1l-48.4-16.7c-0.5-0.2-0.8-0.7-0.6-1.3c0.2-0.5,0.7-0.8,1.3-0.6l48.4,16.7
		c0.5,0.2,0.8,0.7,0.6,1.3C116.9,125.4,116.5,125.7,116.1,125.7z"/>
	<path class="st4" d="M114.9,134.5c-0.1,0-0.2,0-0.3-0.1l-45.5-15.7c-0.5-0.2-0.8-0.7-0.6-1.3c0.2-0.5,0.7-0.8,1.3-0.6l45.5,15.7
		c0.5,0.2,0.8,0.7,0.6,1.3C115.7,134.2,115.3,134.5,114.9,134.5z"/>
	<path class="st4" d="M113.7,143.5c-0.1,0-0.2,0-0.3-0.1l-42-14.5c-0.5-0.2-0.8-0.7-0.6-1.3c0.2-0.5,0.7-0.8,1.3-0.6l42,14.5
		c0.5,0.2,0.8,0.7,0.6,1.3C114.5,143.2,114.1,143.5,113.7,143.5z"/>
	<path class="st4" d="M112,152.1c-0.1,0-0.2,0-0.3-0.1L75,139.4c-0.5-0.2-0.8-0.7-0.6-1.3c0.2-0.5,0.7-0.8,1.3-0.6l36.7,12.7
		c0.5,0.2,0.8,0.7,0.6,1.3C112.8,151.9,112.5,152.1,112,152.1z"/>
	<path class="st4" d="M110.2,159.7c-0.1,0-0.2,0-0.3-0.1L79,149c-0.5-0.2-0.8-0.7-0.6-1.3c0.2-0.5,0.7-0.8,1.3-0.6l30.9,10.6
		c0.5,0.2,0.8,0.7,0.6,1.3C111,159.5,110.6,159.7,110.2,159.7z"/>
	<path class="st4" d="M151.8,165.9c-3.2,0-6.5-0.7-9.9-2c-1.5-0.6-3.2-2.2-5.3-14.8c-1.3-7.9-2.5-18.5-3.4-29.9
		c-2-27-1.7-51.9,0.8-66.6c0.4-2.6,2-5,4.2-6.4c2.2-1.4,5-1.9,7.6-1.2c24,6.5,37.9,17.5,42.4,33.8c0,0.2,0.1,0.4,0.1,0.5
		c0,2.7-0.7,66.5-24.4,82.7C160.2,164.7,156.2,165.9,151.8,165.9z M143.6,160.3c6.9,2.6,12.8,2.1,18.1-1.4
		c21.3-14.5,22.6-74.6,22.7-79.2C180.1,65.1,167.2,55,144.8,49c-1.5-0.4-3.1-0.2-4.4,0.7c-1.3,0.8-2.2,2.2-2.4,3.7
		c-2.4,14-2.7,37.9-0.9,63.9C138.9,143.4,142,158.2,143.6,160.3z M143.3,160.2L143.3,160.2L143.3,160.2z"/>
	<path class="st4" d="M184.1,100.1c-0.3,0-0.5,0-0.8-0.2l-48.6-20.1c-1-0.4-1.5-1.6-1.1-2.6c0.4-1,1.6-1.5,2.6-1.1l48.6,20.1
		c1,0.4,1.5,1.6,1.1,2.6C185.6,99.6,184.8,100.1,184.1,100.1z"/>
	<path class="st4" d="M176.8,141.6c-0.3,0-0.5,0-0.8-0.2l-41.3-17.1c-1-0.4-1.5-1.6-1.1-2.6c0.4-1,1.6-1.5,2.6-1.1l41.3,17.1
		c1,0.4,1.5,1.6,1.1,2.6C178.3,141.1,177.6,141.6,176.8,141.6z"/>
	<path class="st4" d="M135.5,69.8c-0.4,0-0.8-0.3-0.9-0.7c-0.2-0.5,0.1-1.1,0.6-1.3l33.8-11.6c0.5-0.2,1.1,0.1,1.3,0.6
		c0.2,0.5-0.1,1.1-0.6,1.3l-33.8,11.6C135.7,69.8,135.6,69.8,135.5,69.8z"/>
	<path class="st4" d="M134.5,61.3c-0.4,0-0.8-0.3-0.9-0.7c-0.2-0.5,0.1-1.1,0.6-1.3l25.2-8.7c0.5-0.2,1.1,0.1,1.3,0.6
		c0.2,0.5-0.1,1.1-0.6,1.3l-25.2,8.7C134.7,61.3,134.6,61.3,134.5,61.3z"/>
	<path class="st4" d="M133.9,79.7c-0.4,0-0.8-0.3-0.9-0.7c-0.2-0.5,0.1-1.1,0.6-1.3l44.2-15.2c0.5-0.2,1.1,0.1,1.3,0.6
		c0.2,0.5-0.1,1.1-0.6,1.3l-44.2,15.2C134.2,79.7,134.1,79.7,133.9,79.7z"/>
	<path class="st4" d="M133.9,88.9c-0.4,0-0.8-0.3-0.9-0.7c-0.2-0.5,0.1-1.1,0.6-1.3l48.2-16.6c0.5-0.2,1.1,0.1,1.3,0.6
		c0.2,0.5-0.1,1.1-0.6,1.3l-48.2,16.6C134.2,88.9,134.1,88.9,133.9,88.9z"/>
	<path class="st4" d="M135.5,97.8c-0.4,0-0.8-0.3-0.9-0.7c-0.2-0.5,0.1-1.1,0.6-1.3L186,78.3c0.5-0.2,1.1,0.1,1.3,0.6
		c0.2,0.5-0.1,1.1-0.6,1.3l-50.8,17.5C135.7,97.8,135.6,97.8,135.5,97.8z"/>
	<path class="st4" d="M135.5,116.3c-0.4,0-0.8-0.3-0.9-0.7c-0.2-0.5,0.1-1.1,0.6-1.3l48.6-16.7c0.5-0.2,1.1,0.1,1.3,0.6
		c0.2,0.5-0.1,1.1-0.6,1.3l-48.6,16.7C135.7,116.3,135.6,116.3,135.5,116.3z"/>
	<path class="st4" d="M134.5,107.8c-0.4,0-0.8-0.3-0.9-0.7c-0.2-0.5,0.1-1.1,0.6-1.3l50.5-17.4c0.5-0.2,1.1,0.1,1.3,0.6
		c0.2,0.5-0.1,1.1-0.6,1.3l-50.5,17.4C134.7,107.8,134.6,107.8,134.5,107.8z"/>
	<path class="st4" d="M135.5,125.7c-0.4,0-0.8-0.3-0.9-0.7c-0.2-0.5,0.1-1.1,0.6-1.3l48.4-16.7c0.5-0.2,1.1,0.1,1.3,0.6
		c0.2,0.5-0.1,1.1-0.6,1.3l-48.4,16.7C135.7,125.6,135.6,125.7,135.5,125.7z"/>
	<path class="st4" d="M136.7,134.5c-0.4,0-0.8-0.3-0.9-0.7c-0.2-0.5,0.1-1.1,0.6-1.3l45.5-15.7c0.5-0.2,1.1,0.1,1.3,0.6
		s-0.1,1.1-0.6,1.3l-45.5,15.7C136.9,134.4,136.8,134.5,136.7,134.5z"/>
	<path class="st4" d="M137.9,143.5c-0.4,0-0.8-0.3-0.9-0.7c-0.2-0.5,0.1-1.1,0.6-1.3l42-14.5c0.5-0.2,1.1,0.1,1.3,0.6
		c0.2,0.5-0.1,1.1-0.6,1.3l-42,14.5C138.1,143.5,138,143.5,137.9,143.5z"/>
	<path class="st4" d="M139.6,152.1c-0.4,0-0.8-0.3-0.9-0.7c-0.2-0.5,0.1-1.1,0.6-1.3l36.7-12.7c0.5-0.2,1.1,0.1,1.3,0.6
		s-0.1,1.1-0.6,1.3l-36.7,12.7C139.8,152.1,139.7,152.1,139.6,152.1z"/>
	<path class="st4" d="M141.4,159.7c-0.4,0-0.8-0.3-0.9-0.7c-0.2-0.5,0.1-1.1,0.6-1.3l30.9-10.6c0.5-0.2,1.1,0.1,1.3,0.6
		s-0.1,1.1-0.6,1.3l-30.9,10.6C141.6,159.7,141.5,159.7,141.4,159.7z"/>
</g>
</svg>
