<?xml version="1.0" encoding="utf-8"?>
<!-- Generator: Adobe Illustrator 22.1.0, SVG Export Plug-In . SVG Version: 6.00 Build 0)  -->
<svg version="1.1" id="Layer_1" xmlns="http://www.w3.org/2000/svg" xmlns:xlink="http://www.w3.org/1999/xlink" x="0px" y="0px"
	 viewBox="0 0 512 512" style="enable-background:new 0 0 512 512;" xml:space="preserve">
<g>
	<g>
		<path d="M52.1,324.7c1.1,13.1,12.1,23.4,25.4,23.4h52l137.2,91.5c5.4,3.6,11.5,5.4,17.7,5.4c5.2,0,10.3-1.3,15.1-3.8
			c10.4-5.6,16.9-16.4,16.9-28.1V99c0-11.8-6.5-22.6-16.9-28.1c-10.4-5.6-23-5-32.8,1.6l-137.2,91.5h-52
			c-13.3,0-24.3,10.3-25.4,23.4 M120.7,322.8H77.5c-0.1,0-0.2-0.1-0.2-0.2V189.4c0-0.1,0.1-0.2,0.2-0.2h43.2V322.8z M291,413
			c0,3.6-2.4,5.3-3.5,5.8c-1,0.6-3.8,1.6-6.8-0.3L146,328.7V183.3l134.7-89.8c3-2,5.7-0.9,6.8-0.3c1,0.6,3.5,2.2,3.5,5.8V413z"/>
	</g>
</g>
<g>
	<line x1="378.6" y1="212.6" x2="462.6" y2="296.5"/>
	<path d="M462.6,303.5c-1.8,0-3.6-0.7-5-2l-83.9-83.9c-2.7-2.7-2.7-7.2,0-9.9c2.7-2.7,7.2-2.7,9.9,0l83.9,83.9
		c2.7,2.7,2.7,7.2,0,9.9C466.1,302.8,464.3,303.5,462.6,303.5z"/>
</g>
<g>
	<line x1="462.6" y1="212.6" x2="378.6" y2="296.5"/>
	<path d="M378.6,303.5c-1.8,0-3.6-0.7-5-2c-2.7-2.7-2.7-7.2,0-9.9l83.9-83.9c2.7-2.7,7.2-2.7,9.9,0c2.7,2.7,2.7,7.2,0,9.9
		l-83.9,83.9C382.2,302.8,380.4,303.5,378.6,303.5z"/>
</g>
</svg>
