<?xml version="1.0" encoding="utf-8"?>
<!-- Generator: Adobe Illustrator 22.1.0, SVG Export Plug-In . SVG Version: 6.00 Build 0)  -->
<svg version="1.1" id="Layer_1" xmlns="http://www.w3.org/2000/svg" xmlns:xlink="http://www.w3.org/1999/xlink" x="0px" y="0px"
	 viewBox="0 0 512 512" style="enable-background:new 0 0 512 512;" xml:space="preserve">
<g>
	<g>
		<path d="M52.1,324.7c1.1,13.1,12.1,23.4,25.4,23.4h52l137.2,91.5c5.4,3.6,11.5,5.4,17.7,5.4c5.2,0,10.3-1.3,15.1-3.8
			c10.4-5.6,16.9-16.4,16.9-28.1V99c0-11.8-6.5-22.6-16.9-28.1c-10.4-5.6-23-5-32.8,1.6l-137.2,91.5h-52
			c-13.3,0-24.3,10.3-25.4,23.4 M52,212.6v86.8 M120.7,322.8H77.5c-0.1,0-0.2-0.1-0.2-0.2V189.4c0-0.1,0.1-0.2,0.2-0.2h43.2V322.8z
			 M291,413c0,3.6-2.4,5.3-3.5,5.8c-1,0.6-3.8,1.6-6.8-0.3L146,328.7V183.3l134.7-89.8c3-2,5.7-0.9,6.8-0.3c1,0.6,3.5,2.2,3.5,5.8
			V413z"/>
	</g>
</g>
<g>
	<g>
		<path d="M445.6,95.5c-4.5-4.5-11.7-4.5-16.1,0s-4.5,11.7,0,16.1c38.5,38.5,59.7,89.8,59.7,144.4c0,54.6-21.2,105.9-59.7,144.4
			c-4.5,4.5-4.5,11.7,0,16.1c2.2,2.2,5.1,3.3,8.1,3.3c2.9,0,5.8-1.1,8.1-3.3C488.4,373.7,512,316.7,512,256
			C512,195.3,488.4,138.3,445.6,95.5z"/>
	</g>
</g>
<g>
	<g>
		<path d="M383,158.1c-4.5-4.5-11.7-4.5-16.1,0s-4.5,11.7,0,16.1c21.8,21.8,33.8,50.9,33.8,81.8c0,30.9-12,60-33.8,81.8
			c-4.5,4.5-4.5,11.7,0,16.1c2.2,2.2,5.1,3.3,8.1,3.3c2.9,0,5.8-1.1,8.1-3.3c26.1-26.1,40.5-60.9,40.5-97.9
			C423.5,219,409.1,184.2,383,158.1z"/>
	</g>
</g>
</svg>
